<svg width="182" height="23" viewBox="0 0 182 23" fill="none" xmlns="http://www.w3.org/2000/svg">
<path d="M0.982961 11.5372C0.982961 9.38788 1.44796 7.47622 2.37796 5.80222C3.30796 4.10755 4.59963 2.79522 6.25296 1.86522C7.92696 0.914551 9.81796 0.439218 11.926 0.439218C14.5093 0.439218 16.7206 1.12122 18.56 2.48522C20.3993 3.84922 21.629 5.70922 22.249 8.06522H16.421C15.987 7.15588 15.367 6.46355 14.561 5.98822C13.7756 5.51288 12.8766 5.27522 11.864 5.27522C10.2313 5.27522 8.90863 5.84355 7.89596 6.98022C6.88329 8.11688 6.37696 9.63588 6.37696 11.5372C6.37696 13.4386 6.88329 14.9576 7.89596 16.0942C8.90863 17.2309 10.2313 17.7992 11.864 17.7992C12.8766 17.7992 13.7756 17.5616 14.561 17.0862C15.367 16.6109 15.987 15.9186 16.421 15.0092H22.249C21.629 17.3652 20.3993 19.2252 18.56 20.5892C16.7206 21.9326 14.5093 22.6042 11.926 22.6042C9.81796 22.6042 7.92696 22.1392 6.25296 21.2092C4.59963 20.2586 3.30796 18.9462 2.37796 17.2722C1.44796 15.5982 0.982961 13.6866 0.982961 11.5372ZM35.3532 22.4492L30.8272 14.2342H29.5562V22.4492H24.2552V0.687218H33.1522C34.8676 0.687218 36.3246 0.986885 37.5232 1.58622C38.7426 2.18555 39.6519 3.01222 40.2512 4.06622C40.8506 5.09955 41.1502 6.25688 41.1502 7.53822C41.1502 8.98488 40.7369 10.2766 39.9102 11.4132C39.1042 12.5499 37.9056 13.3559 36.3142 13.8312L41.3362 22.4492H35.3532ZM29.5562 10.4832H32.8422C33.8136 10.4832 34.5369 10.2456 35.0122 9.77022C35.5082 9.29489 35.7562 8.62322 35.7562 7.75522C35.7562 6.92855 35.5082 6.27755 35.0122 5.80222C34.5369 5.32689 33.8136 5.08922 32.8422 5.08922H29.5562V10.4832ZM57.0949 18.6052H48.9729L47.6709 22.4492H42.1219L49.9959 0.687218H56.1339L64.0079 22.4492H58.3969L57.0949 18.6052ZM55.7309 14.5132L53.0339 6.54622L50.3679 14.5132H55.7309ZM81.5633 0.687218L73.8443 22.4492H67.2103L59.4913 0.687218H65.1333L70.5273 17.1172L75.9523 0.687218H81.5633ZM88.1499 4.93422V9.33622H95.2489V13.4282H88.1499V18.2022H96.1789V22.4492H82.8489V0.687218H96.1789V4.93422H88.1499ZM112.237 18.6052H104.115L102.813 22.4492H97.2644L105.138 0.687218H111.276L119.15 22.4492H113.539L112.237 18.6052ZM110.873 14.5132L108.176 6.54622L105.51 14.5132H110.873ZM147.153 0.687218L141.48 22.4492H135.063L131.591 8.12722L127.995 22.4492H121.578L116.06 0.687218H121.733L124.864 16.5282L128.739 0.687218H134.567L138.287 16.5282L141.449 0.687218H147.153ZM158.708 18.6052H150.586L149.284 22.4492H143.735L151.609 0.687218H157.747L165.621 22.4492H160.01L158.708 18.6052ZM157.344 14.5132L154.647 6.54622L151.981 14.5132H157.344ZM181.1 0.687218L173.567 15.2572V22.4492H168.266V15.2572L160.733 0.687218H166.747L170.963 9.80122L175.148 0.687218H181.1Z" fill="#34393C"/>
</svg>
