<svg width="93" height="92" viewBox="0 0 23 22" fill="none" xmlns="http://www.w3.org/2000/svg">
<path fill-rule="evenodd" clip-rule="evenodd" d="M16.4293 10.6554C16.4509 10.3976 16.3064 10.1473 16.0657 10.0532C15.6792 9.90208 15.3026 9.71073 14.9419 9.47798C12.0824 7.63282 11.3035 3.88436 13.2023 1.10555V1.10555C13.377 0.849894 13.2371 0.483394 12.9288 0.458672C12.8603 0.453178 12.7916 0.448292 12.7227 0.444019C6.71596 0.0714799 1.53575 4.50145 1.15238 10.3386C0.769022 16.1758 5.32769 21.2098 11.3344 21.5823C16.0368 21.874 20.2326 19.2224 22.0171 15.2566C22.2144 14.818 21.655 14.3781 21.19 14.5008C20.1752 14.7687 19.0512 14.6261 18.1064 14.0165C16.9191 13.2503 16.3215 11.9446 16.4293 10.6554Z" fill="#FCC62E"/>
<path d="M18.1093 4.37102C18.1093 5.7129 18.8701 6.78267 17.4892 6.78267C16.1083 6.78267 15.3212 6.33115 14.2149 4.37102C13.8833 2.99848 15.0827 2.75781 16.4636 2.75781C17.8444 2.75781 18.4854 2.75781 18.1093 4.37102Z" fill="#FCC62E"/>
<path d="M20.1531 10.1855C21.1014 10.2906 21.917 9.86664 21.8089 10.7882C21.7007 11.7098 21.3199 12.1997 19.848 12.7845C18.8521 12.8983 18.7759 12.079 18.8841 11.1574C18.9923 10.2359 19.0425 9.80809 20.1531 10.1855Z" fill="#FCC62E"/>
<ellipse cx="20.8346" cy="7.15874" rx="1.03966" ry="1.01031" fill="#FCC62E"/>
</svg>
