<svg width="240" height="49" viewBox="0 0 240 49" fill="none" xmlns="http://www.w3.org/2000/svg">
<path fill-rule="evenodd" clip-rule="evenodd" d="M15.734 24.3741C15.7556 24.1164 15.6111 23.866 15.3704 23.7719C14.9839 23.6208 14.6073 23.4295 14.2466 23.1967C11.3871 21.3516 10.6082 17.6031 12.507 14.8243V14.8243C12.6816 14.5686 12.5418 14.2021 12.2335 14.1774C12.165 14.1719 12.0963 14.167 12.0274 14.1628C6.02065 13.7902 0.840434 18.2202 0.457072 24.0574C0.0737098 29.8946 4.63237 34.9285 10.6391 35.3011C15.3415 35.5927 19.5373 32.9412 21.3217 28.9754C21.5191 28.5368 20.9596 28.0968 20.4946 28.2196C19.4799 28.4875 18.3559 28.3449 17.4111 27.7352C16.2237 26.9691 15.6262 25.6634 15.734 24.3741Z" fill="#FCC62E"/>
<path d="M17.414 18.0898C17.414 19.4317 18.1748 20.5014 16.7939 20.5014C15.413 20.5014 14.6259 20.0499 13.5196 18.0898C13.188 16.7172 14.3874 16.4766 15.7683 16.4766C17.1491 16.4766 17.7901 16.4766 17.414 18.0898Z" fill="#FCC62E"/>
<path d="M19.4578 23.9042C20.4061 24.0093 21.2217 23.5854 21.1135 24.5069C21.0054 25.4285 20.6246 25.9185 19.1527 26.5032C18.1568 26.617 18.0806 25.7977 18.1888 24.8762C18.297 23.9546 18.3472 23.5268 19.4578 23.9042Z" fill="#FCC62E"/>
<ellipse cx="20.1393" cy="20.8775" rx="1.03966" ry="1.01031" fill="#FCC62E"/>
<path d="M30.983 23.8067C30.983 21.6574 31.448 19.7457 32.378 18.0717C33.308 16.3771 34.5996 15.0647 36.253 14.1347C37.927 13.1841 39.818 12.7087 41.926 12.7087C44.5093 12.7087 46.7206 13.3907 48.56 14.7547C50.3993 16.1187 51.629 17.9787 52.249 20.3347H46.421C45.987 19.4254 45.367 18.7331 44.561 18.2577C43.7756 17.7824 42.8766 17.5447 41.864 17.5447C40.2313 17.5447 38.9086 18.1131 37.896 19.2497C36.8833 20.3864 36.377 21.9054 36.377 23.8067C36.377 25.7081 36.8833 27.2271 37.896 28.3637C38.9086 29.5004 40.2313 30.0687 41.864 30.0687C42.8766 30.0687 43.7756 29.8311 44.561 29.3557C45.367 28.8804 45.987 28.1881 46.421 27.2787H52.249C51.629 29.6347 50.3993 31.4947 48.56 32.8587C46.7206 34.2021 44.5093 34.8738 41.926 34.8738C39.818 34.8738 37.927 34.4087 36.253 33.4787C34.5996 32.5281 33.308 31.2157 32.378 29.5417C31.448 27.8677 30.983 25.9561 30.983 23.8067ZM65.3532 34.7188L60.8272 26.5037H59.5562V34.7188H54.2552V12.9567H63.1522C64.8676 12.9567 66.3246 13.2564 67.5232 13.8557C68.7426 14.4551 69.6519 15.2817 70.2512 16.3357C70.8506 17.3691 71.1502 18.5264 71.1502 19.8077C71.1502 21.2544 70.7369 22.5461 69.9102 23.6827C69.1042 24.8194 67.9056 25.6254 66.3142 26.1007L71.3362 34.7188H65.3532ZM59.5562 22.7527H62.8422C63.8136 22.7527 64.5369 22.5151 65.0122 22.0397C65.5082 21.5644 65.7562 20.8927 65.7562 20.0247C65.7562 19.1981 65.5082 18.5471 65.0122 18.0717C64.5369 17.5964 63.8136 17.3587 62.8422 17.3587H59.5562V22.7527ZM87.0949 30.8747H78.9729L77.6709 34.7188H72.1219L79.9959 12.9567H86.1339L94.0079 34.7188H88.3969L87.0949 30.8747ZM85.7309 26.7827L83.0339 18.8157L80.3679 26.7827H85.7309ZM111.563 12.9567L103.844 34.7188H97.2103L89.4913 12.9567H95.1333L100.527 29.3867L105.952 12.9567H111.563ZM118.15 17.2038V21.6057H125.249V25.6977H118.15V30.4717H126.179V34.7188H112.849V12.9567H126.179V17.2038H118.15ZM142.237 30.8747H134.115L132.813 34.7188H127.264L135.138 12.9567H141.276L149.15 34.7188H143.539L142.237 30.8747ZM140.873 26.7827L138.176 18.8157L135.51 26.7827H140.873ZM177.153 12.9567L171.48 34.7188H165.063L161.591 20.3967L157.995 34.7188H151.578L146.06 12.9567H151.733L154.864 28.7977L158.739 12.9567H164.567L168.287 28.7977L171.449 12.9567H177.153ZM188.708 30.8747H180.586L179.284 34.7188H173.735L181.609 12.9567H187.747L195.621 34.7188H190.01L188.708 30.8747ZM187.344 26.7827L184.647 18.8157L181.981 26.7827H187.344ZM211.1 12.9567L203.567 27.5267V34.7188H198.266V27.5267L190.733 12.9567H196.747L200.963 22.0707L205.148 12.9567H211.1Z" fill="#34393C"/>
</svg>
