<svg width="183" height="70" viewBox="0 0 183 70" fill="none" xmlns="http://www.w3.org/2000/svg">
<path fill-rule="evenodd" clip-rule="evenodd" d="M96.714 11.3741C96.7355 11.1164 96.5911 10.866 96.3504 10.7719C95.9639 10.6208 95.5873 10.4295 95.2266 10.1967C92.367 8.35157 91.5882 4.60311 93.4869 1.8243V1.8243C93.6616 1.56864 93.5218 1.20214 93.2135 1.17742C93.145 1.17193 93.0763 1.16704 93.0074 1.16277C87.0006 0.79023 81.8204 5.2202 81.4371 11.0574C81.0537 16.8946 85.6124 21.9285 91.6191 22.3011C96.3215 22.5927 100.517 19.9412 102.302 15.9754C102.499 15.5368 101.94 15.0968 101.475 15.2196C100.46 15.4875 99.3359 15.3449 98.3911 14.7352C97.2037 13.9691 96.6062 12.6634 96.714 11.3741Z" fill="#FCC62E"/>
<path d="M98.394 5.08977C98.394 6.43165 99.1548 7.50142 97.7739 7.50142C96.393 7.50142 95.6058 7.0499 94.4996 5.08977C94.168 3.71723 95.3674 3.47656 96.7482 3.47656C98.1291 3.47656 98.7701 3.47656 98.394 5.08977Z" fill="#FCC62E"/>
<path d="M100.438 10.9042C101.386 11.0093 102.202 10.5854 102.094 11.5069C101.985 12.4285 101.605 12.9185 100.133 13.5032C99.1368 13.617 99.0606 12.7977 99.1688 11.8762C99.2769 10.9546 99.3271 10.5268 100.438 10.9042Z" fill="#FCC62E"/>
<ellipse cx="101.119" cy="7.87749" rx="1.03966" ry="1.01031" fill="#FCC62E"/>
<path d="M1.98296 45.8067C1.98296 43.6574 2.44796 41.7457 3.37796 40.0717C4.30796 38.3771 5.59963 37.0647 7.25296 36.1347C8.92696 35.1841 10.818 34.7087 12.926 34.7087C15.5093 34.7087 17.7206 35.3907 19.56 36.7547C21.3993 38.1187 22.629 39.9787 23.249 42.3347H17.421C16.987 41.4254 16.367 40.7331 15.561 40.2577C14.7756 39.7824 13.8766 39.5447 12.864 39.5447C11.2313 39.5447 9.90863 40.1131 8.89596 41.2497C7.88329 42.3864 7.37696 43.9054 7.37696 45.8067C7.37696 47.7081 7.88329 49.2271 8.89596 50.3637C9.90863 51.5004 11.2313 52.0687 12.864 52.0687C13.8766 52.0687 14.7756 51.8311 15.561 51.3557C16.367 50.8804 16.987 50.1881 17.421 49.2787H23.249C22.629 51.6347 21.3993 53.4947 19.56 54.8587C17.7206 56.2021 15.5093 56.8738 12.926 56.8738C10.818 56.8738 8.92696 56.4087 7.25296 55.4787C5.59963 54.5281 4.30796 53.2157 3.37796 51.5417C2.44796 49.8677 1.98296 47.9561 1.98296 45.8067ZM36.3532 56.7188L31.8272 48.5037H30.5562V56.7188H25.2552V34.9567H34.1522C35.8676 34.9567 37.3246 35.2564 38.5232 35.8557C39.7426 36.4551 40.6519 37.2817 41.2512 38.3357C41.8506 39.3691 42.1502 40.5264 42.1502 41.8077C42.1502 43.2544 41.7369 44.5461 40.9102 45.6827C40.1042 46.8194 38.9056 47.6254 37.3142 48.1007L42.3362 56.7188H36.3532ZM30.5562 44.7527H33.8422C34.8136 44.7527 35.5369 44.5151 36.0122 44.0397C36.5082 43.5644 36.7562 42.8927 36.7562 42.0247C36.7562 41.1981 36.5082 40.5471 36.0122 40.0717C35.5369 39.5964 34.8136 39.3587 33.8422 39.3587H30.5562V44.7527ZM58.0949 52.8747H49.9729L48.6709 56.7188H43.1219L50.9959 34.9567H57.1339L65.0079 56.7188H59.3969L58.0949 52.8747ZM56.7309 48.7827L54.0339 40.8157L51.3679 48.7827H56.7309ZM82.5633 34.9567L74.8443 56.7188H68.2103L60.4913 34.9567H66.1333L71.5273 51.3867L76.9523 34.9567H82.5633ZM89.1499 39.2038V43.6057H96.2489V47.6977H89.1499V52.4717H97.1789V56.7188H83.8489V34.9567H97.1789V39.2038H89.1499ZM113.237 52.8747H105.115L103.813 56.7188H98.2644L106.138 34.9567H112.276L120.15 56.7188H114.539L113.237 52.8747ZM111.873 48.7827L109.176 40.8157L106.51 48.7827H111.873ZM148.153 34.9567L142.48 56.7188H136.063L132.591 42.3967L128.995 56.7188H122.578L117.06 34.9567H122.733L125.864 50.7977L129.739 34.9567H135.567L139.287 50.7977L142.449 34.9567H148.153ZM159.708 52.8747H151.586L150.284 56.7188H144.735L152.609 34.9567H158.747L166.621 56.7188H161.01L159.708 52.8747ZM158.344 48.7827L155.647 40.8157L152.981 48.7827H158.344ZM182.1 34.9567L174.567 49.5267V56.7188H169.266V49.5267L161.733 34.9567H167.747L171.963 44.0707L176.148 34.9567H182.1Z" fill="#34393C"/>
</svg>
