<svg width="618" height="108" viewBox="0 0 618 108" fill="none" xmlns="http://www.w3.org/2000/svg">
<path d="M13.9443 37.727C11.511 37.727 9.311 37.3103 7.34434 36.477C5.411 35.6436 3.87767 34.4436 2.74434 32.877C1.611 31.3103 1.02767 29.4603 0.994336 27.327H8.49434C8.59434 28.7603 9.09434 29.8936 9.99434 30.727C10.9277 31.5603 12.1943 31.977 13.7943 31.977C15.4277 31.977 16.711 31.5936 17.6443 30.827C18.5777 30.027 19.0443 28.9936 19.0443 27.727C19.0443 26.6936 18.7277 25.8436 18.0943 25.177C17.461 24.5103 16.661 23.9936 15.6943 23.627C14.761 23.227 13.461 22.7936 11.7943 22.327C9.52767 21.6603 7.67767 21.0103 6.24434 20.377C4.84434 19.7103 3.62767 18.727 2.59434 17.427C1.59434 16.0936 1.09434 14.327 1.09434 12.127C1.09434 10.0603 1.611 8.26028 2.64434 6.72695C3.67767 5.19362 5.12767 4.02695 6.99434 3.22695C8.861 2.39362 10.9943 1.97695 13.3943 1.97695C16.9943 1.97695 19.911 2.86029 22.1443 4.62695C24.411 6.36028 25.661 8.79362 25.8943 11.927H18.1943C18.1277 10.727 17.611 9.74362 16.6443 8.97695C15.711 8.17695 14.461 7.77695 12.8943 7.77695C11.5277 7.77695 10.4277 8.12695 9.59434 8.82695C8.79434 9.52695 8.39434 10.5436 8.39434 11.877C8.39434 12.8103 8.69434 13.5936 9.29434 14.227C9.92767 14.827 10.6943 15.327 11.5943 15.727C12.5277 16.0936 13.8277 16.527 15.4943 17.027C17.761 17.6936 19.611 18.3603 21.0443 19.027C22.4777 19.6936 23.711 20.6936 24.7443 22.027C25.7777 23.3603 26.2943 25.1103 26.2943 27.277C26.2943 29.1436 25.811 30.877 24.8443 32.477C23.8777 34.077 22.461 35.3603 20.5943 36.327C18.7277 37.2603 16.511 37.727 13.9443 37.727ZM58.1131 22.927C58.1131 23.927 58.0464 24.827 57.9131 25.627H37.6631C37.8298 27.627 38.5298 29.1936 39.7631 30.327C40.9964 31.4603 42.5131 32.027 44.3131 32.027C46.9131 32.027 48.7631 30.9103 49.8631 28.677H57.4131C56.6131 31.3436 55.0798 33.5436 52.8131 35.277C50.5464 36.977 47.7631 37.827 44.4631 37.827C41.7964 37.827 39.3964 37.2436 37.2631 36.077C35.1631 34.877 33.5131 33.1936 32.3131 31.027C31.1464 28.8603 30.5631 26.3603 30.5631 23.527C30.5631 20.6603 31.1464 18.1436 32.3131 15.977C33.4798 13.8103 35.1131 12.1436 37.2131 10.977C39.3131 9.81029 41.7298 9.22695 44.4631 9.22695C47.0964 9.22695 49.4464 9.79362 51.5131 10.927C53.6131 12.0603 55.2298 13.677 56.3631 15.777C57.5298 17.8436 58.1131 20.227 58.1131 22.927ZM50.8631 20.927C50.8298 19.127 50.1798 17.6936 48.9131 16.627C47.6464 15.527 46.0964 14.977 44.2631 14.977C42.5298 14.977 41.0631 15.5103 39.8631 16.577C38.6964 17.6103 37.9798 19.0603 37.7131 20.927H50.8631ZM61.4225 23.427C61.4225 20.627 61.9725 18.1436 63.0725 15.977C64.2058 13.8103 65.7225 12.1436 67.6225 10.977C69.5558 9.81029 71.7058 9.22695 74.0725 9.22695C76.1391 9.22695 77.9391 9.64362 79.4725 10.477C81.0391 11.3103 82.2891 12.3603 83.2225 13.627V9.67695H90.2725V37.377H83.2225V33.327C82.3225 34.627 81.0725 35.7103 79.4725 36.577C77.9058 37.4103 76.0891 37.827 74.0225 37.827C71.6891 37.827 69.5558 37.227 67.6225 36.027C65.7225 34.827 64.2058 33.1436 63.0725 30.977C61.9725 28.777 61.4225 26.2603 61.4225 23.427ZM83.2225 23.527C83.2225 21.827 82.8891 20.377 82.2225 19.177C81.5558 17.9436 80.6558 17.0103 79.5225 16.377C78.3891 15.7103 77.1725 15.377 75.8725 15.377C74.5725 15.377 73.3725 15.6936 72.2725 16.327C71.1725 16.9603 70.2725 17.8936 69.5725 19.127C68.9058 20.327 68.5725 21.7603 68.5725 23.427C68.5725 25.0936 68.9058 26.5603 69.5725 27.827C70.2725 29.0603 71.1725 30.0103 72.2725 30.677C73.4058 31.3436 74.6058 31.677 75.8725 31.677C77.1725 31.677 78.3891 31.3603 79.5225 30.727C80.6558 30.0603 81.5558 29.127 82.2225 27.927C82.8891 26.6936 83.2225 25.227 83.2225 23.527ZM104.109 13.977C105.009 12.5103 106.176 11.3603 107.609 10.527C109.076 9.69362 110.743 9.27695 112.609 9.27695V16.627H110.759C108.559 16.627 106.893 17.1436 105.759 18.177C104.659 19.2103 104.109 21.0103 104.109 23.577V37.377H97.1092V9.67695H104.109V13.977ZM115.524 23.527C115.524 20.6603 116.107 18.1603 117.274 16.027C118.441 13.8603 120.057 12.1936 122.124 11.027C124.191 9.82695 126.557 9.22695 129.224 9.22695C132.657 9.22695 135.491 10.0936 137.724 11.827C139.991 13.527 141.507 15.927 142.274 19.027H134.724C134.324 17.827 133.641 16.8936 132.674 16.227C131.741 15.527 130.574 15.177 129.174 15.177C127.174 15.177 125.591 15.9103 124.424 17.377C123.257 18.8103 122.674 20.8603 122.674 23.527C122.674 26.1603 123.257 28.2103 124.424 29.677C125.591 31.1103 127.174 31.827 129.174 31.827C132.007 31.827 133.857 30.5603 134.724 28.027H142.274C141.507 31.027 139.991 33.4103 137.724 35.177C135.457 36.9436 132.624 37.827 129.224 37.827C126.557 37.827 124.191 37.2436 122.124 36.077C120.057 34.877 118.441 33.2103 117.274 31.077C116.107 28.9103 115.524 26.3936 115.524 23.527ZM163.002 9.27695C165.102 9.27695 166.969 9.74362 168.602 10.677C170.235 11.577 171.502 12.927 172.402 14.727C173.335 16.4936 173.802 18.627 173.802 21.127V37.377H166.802V22.077C166.802 19.877 166.252 18.1936 165.152 17.027C164.052 15.827 162.552 15.227 160.652 15.227C158.719 15.227 157.185 15.827 156.052 17.027C154.952 18.1936 154.402 19.877 154.402 22.077V37.377H147.402V0.376953H154.402V13.127C155.302 11.927 156.502 10.9936 158.002 10.327C159.502 9.62695 161.169 9.27695 163.002 9.27695ZM219.223 37.377L215.423 33.627C212.19 36.527 208.24 37.977 203.573 37.977C201.006 37.977 198.74 37.5436 196.773 36.677C194.84 35.777 193.34 34.527 192.273 32.927C191.206 31.2936 190.673 29.4103 190.673 27.277C190.673 24.977 191.323 22.9103 192.623 21.077C193.923 19.2436 195.84 17.7603 198.373 16.627C197.473 15.527 196.823 14.477 196.423 13.477C196.023 12.4436 195.823 11.3436 195.823 10.177C195.823 8.57695 196.24 7.14362 197.073 5.87695C197.906 4.57695 199.09 3.56028 200.623 2.82695C202.19 2.09362 204.006 1.72695 206.073 1.72695C208.173 1.72695 209.973 2.12695 211.473 2.92695C212.973 3.72695 214.09 4.79362 214.823 6.12695C215.556 7.46029 215.873 8.94362 215.773 10.577H208.973C209.006 9.47695 208.74 8.64362 208.173 8.07695C207.606 7.47695 206.84 7.17695 205.873 7.17695C204.94 7.17695 204.156 7.46029 203.523 8.02695C202.923 8.56028 202.623 9.26028 202.623 10.127C202.623 10.9603 202.873 11.7936 203.373 12.627C203.873 13.427 204.69 14.427 205.823 15.627L214.623 24.327C214.69 24.2603 214.74 24.1936 214.773 24.127C214.806 24.0603 214.84 23.9936 214.873 23.927L217.723 19.177H225.023L221.523 25.327C220.856 26.627 220.14 27.8603 219.373 29.027L227.823 37.377H219.223ZM203.773 32.177C206.506 32.177 208.923 31.2103 211.023 29.277L202.423 20.777C199.19 22.2103 197.573 24.2436 197.573 26.877C197.573 28.377 198.14 29.6436 199.273 30.677C200.406 31.677 201.906 32.177 203.773 32.177ZM241.403 23.527C241.403 20.6603 241.986 18.1603 243.153 16.027C244.32 13.8603 245.936 12.1936 248.003 11.027C250.07 9.82695 252.436 9.22695 255.103 9.22695C258.536 9.22695 261.37 10.0936 263.603 11.827C265.87 13.527 267.386 15.927 268.153 19.027H260.603C260.203 17.827 259.52 16.8936 258.553 16.227C257.62 15.527 256.453 15.177 255.053 15.177C253.053 15.177 251.47 15.9103 250.303 17.377C249.136 18.8103 248.553 20.8603 248.553 23.527C248.553 26.1603 249.136 28.2103 250.303 29.677C251.47 31.1103 253.053 31.827 255.053 31.827C257.886 31.827 259.736 30.5603 260.603 28.027H268.153C267.386 31.027 265.87 33.4103 263.603 35.177C261.336 36.9436 258.503 37.827 255.103 37.827C252.436 37.827 250.07 37.2436 248.003 36.077C245.936 34.877 244.32 33.2103 243.153 31.077C241.986 28.9103 241.403 26.3936 241.403 23.527ZM280.281 13.977C281.181 12.5103 282.348 11.3603 283.781 10.527C285.248 9.69362 286.914 9.27695 288.781 9.27695V16.627H286.931C284.731 16.627 283.064 17.1436 281.931 18.177C280.831 19.2103 280.281 21.0103 280.281 23.577V37.377H273.281V9.67695H280.281V13.977ZM319.246 22.927C319.246 23.927 319.179 24.827 319.046 25.627H298.796C298.963 27.627 299.663 29.1936 300.896 30.327C302.129 31.4603 303.646 32.027 305.446 32.027C308.046 32.027 309.896 30.9103 310.996 28.677H318.546C317.746 31.3436 316.213 33.5436 313.946 35.277C311.679 36.977 308.896 37.827 305.596 37.827C302.929 37.827 300.529 37.2436 298.396 36.077C296.296 34.877 294.646 33.1936 293.446 31.027C292.279 28.8603 291.696 26.3603 291.696 23.527C291.696 20.6603 292.279 18.1436 293.446 15.977C294.613 13.8103 296.246 12.1436 298.346 10.977C300.446 9.81029 302.863 9.22695 305.596 9.22695C308.229 9.22695 310.579 9.79362 312.646 10.927C314.746 12.0603 316.363 13.677 317.496 15.777C318.663 17.8436 319.246 20.227 319.246 22.927ZM311.996 20.927C311.963 19.127 311.313 17.6936 310.046 16.627C308.779 15.527 307.229 14.977 305.396 14.977C303.663 14.977 302.196 15.5103 300.996 16.577C299.829 17.6103 299.113 19.0603 298.846 20.927H311.996ZM322.555 23.427C322.555 20.627 323.105 18.1436 324.205 15.977C325.339 13.8103 326.855 12.1436 328.755 10.977C330.689 9.81029 332.839 9.22695 335.205 9.22695C337.272 9.22695 339.072 9.64362 340.605 10.477C342.172 11.3103 343.422 12.3603 344.355 13.627V9.67695H351.405V37.377H344.355V33.327C343.455 34.627 342.205 35.7103 340.605 36.577C339.039 37.4103 337.222 37.827 335.155 37.827C332.822 37.827 330.689 37.227 328.755 36.027C326.855 34.827 325.339 33.1436 324.205 30.977C323.105 28.777 322.555 26.2603 322.555 23.427ZM344.355 23.527C344.355 21.827 344.022 20.377 343.355 19.177C342.689 17.9436 341.789 17.0103 340.655 16.377C339.522 15.7103 338.305 15.377 337.005 15.377C335.705 15.377 334.505 15.6936 333.405 16.327C332.305 16.9603 331.405 17.8936 330.705 19.127C330.039 20.327 329.705 21.7603 329.705 23.427C329.705 25.0936 330.039 26.5603 330.705 27.827C331.405 29.0603 332.305 30.0103 333.405 30.677C334.539 31.3436 335.739 31.677 337.005 31.677C338.305 31.677 339.522 31.3603 340.655 30.727C341.789 30.0603 342.689 29.127 343.355 27.927C344.022 26.6936 344.355 25.227 344.355 23.527ZM366.392 15.427V28.827C366.392 29.7603 366.609 30.4436 367.042 30.877C367.509 31.277 368.275 31.477 369.342 31.477H372.592V37.377H368.192C362.292 37.377 359.342 34.5103 359.342 28.777V15.427H356.042V9.67695H359.342V2.82695H366.392V9.67695H372.592V15.427H366.392ZM403.377 22.927C403.377 23.927 403.31 24.827 403.177 25.627H382.927C383.093 27.627 383.793 29.1936 385.027 30.327C386.26 31.4603 387.777 32.027 389.577 32.027C392.177 32.027 394.027 30.9103 395.127 28.677H402.677C401.877 31.3436 400.343 33.5436 398.077 35.277C395.81 36.977 393.027 37.827 389.727 37.827C387.06 37.827 384.66 37.2436 382.527 36.077C380.427 34.877 378.777 33.1936 377.577 31.027C376.41 28.8603 375.827 26.3603 375.827 23.527C375.827 20.6603 376.41 18.1436 377.577 15.977C378.743 13.8103 380.377 12.1436 382.477 10.977C384.577 9.81029 386.993 9.22695 389.727 9.22695C392.36 9.22695 394.71 9.79362 396.777 10.927C398.877 12.0603 400.493 13.677 401.627 15.777C402.793 17.8436 403.377 20.227 403.377 22.927ZM396.127 20.927C396.093 19.127 395.443 17.6936 394.177 16.627C392.91 15.527 391.36 14.977 389.527 14.977C387.793 14.977 386.327 15.5103 385.127 16.577C383.96 17.6103 383.243 19.0603 382.977 20.927H396.127ZM436 9.27695C438.1 9.27695 439.967 9.74362 441.6 10.677C443.234 11.577 444.5 12.927 445.4 14.727C446.334 16.4936 446.8 18.627 446.8 21.127V37.377H439.8V22.077C439.8 19.877 439.25 18.1936 438.15 17.027C437.05 15.827 435.55 15.227 433.65 15.227C431.717 15.227 430.184 15.827 429.05 17.027C427.95 18.1936 427.4 19.877 427.4 22.077V37.377H420.4V0.376953H427.4V13.127C428.3 11.927 429.5 10.9936 431 10.327C432.5 9.62695 434.167 9.27695 436 9.27695ZM479.207 22.927C479.207 23.927 479.14 24.827 479.007 25.627H458.757C458.924 27.627 459.624 29.1936 460.857 30.327C462.09 31.4603 463.607 32.027 465.407 32.027C468.007 32.027 469.857 30.9103 470.957 28.677H478.507C477.707 31.3436 476.174 33.5436 473.907 35.277C471.64 36.977 468.857 37.827 465.557 37.827C462.89 37.827 460.49 37.2436 458.357 36.077C456.257 34.877 454.607 33.1936 453.407 31.027C452.24 28.8603 451.657 26.3603 451.657 23.527C451.657 20.6603 452.24 18.1436 453.407 15.977C454.574 13.8103 456.207 12.1436 458.307 10.977C460.407 9.81029 462.824 9.22695 465.557 9.22695C468.19 9.22695 470.54 9.79362 472.607 10.927C474.707 12.0603 476.324 13.677 477.457 15.777C478.624 17.8436 479.207 20.227 479.207 22.927ZM471.957 20.927C471.924 19.127 471.274 17.6936 470.007 16.627C468.74 15.527 467.19 14.977 465.357 14.977C463.624 14.977 462.157 15.5103 460.957 16.577C459.79 17.6103 459.074 19.0603 458.807 20.927H471.957ZM482.516 23.427C482.516 20.627 483.066 18.1436 484.166 15.977C485.3 13.8103 486.816 12.1436 488.716 10.977C490.65 9.81029 492.8 9.22695 495.166 9.22695C497.233 9.22695 499.033 9.64362 500.566 10.477C502.133 11.3103 503.383 12.3603 504.316 13.627V9.67695H511.366V37.377H504.316V33.327C503.416 34.627 502.166 35.7103 500.566 36.577C499 37.4103 497.183 37.827 495.116 37.827C492.783 37.827 490.65 37.227 488.716 36.027C486.816 34.827 485.3 33.1436 484.166 30.977C483.066 28.777 482.516 26.2603 482.516 23.427ZM504.316 23.527C504.316 21.827 503.983 20.377 503.316 19.177C502.65 17.9436 501.75 17.0103 500.616 16.377C499.483 15.7103 498.266 15.377 496.966 15.377C495.666 15.377 494.466 15.6936 493.366 16.327C492.266 16.9603 491.366 17.8936 490.666 19.127C490 20.327 489.666 21.7603 489.666 23.427C489.666 25.0936 490 26.5603 490.666 27.827C491.366 29.0603 492.266 30.0103 493.366 30.677C494.5 31.3436 495.7 31.677 496.966 31.677C498.266 31.677 499.483 31.3603 500.616 30.727C501.75 30.0603 502.65 29.127 503.316 27.927C503.983 26.6936 504.316 25.227 504.316 23.527ZM525.203 0.376953V37.377H518.203V0.376953H525.203ZM540.269 15.427V28.827C540.269 29.7603 540.486 30.4436 540.919 30.877C541.386 31.277 542.152 31.477 543.219 31.477H546.469V37.377H542.069C536.169 37.377 533.219 34.5103 533.219 28.777V15.427H529.919V9.67695H533.219V2.82695H540.269V9.67695H546.469V15.427H540.269ZM567.104 9.27695C569.204 9.27695 571.07 9.74362 572.704 10.677C574.337 11.577 575.604 12.927 576.504 14.727C577.437 16.4936 577.904 18.627 577.904 21.127V37.377H570.904V22.077C570.904 19.877 570.354 18.1936 569.254 17.027C568.154 15.827 566.654 15.227 564.754 15.227C562.82 15.227 561.287 15.827 560.154 17.027C559.054 18.1936 558.504 19.877 558.504 22.077V37.377H551.504V0.376953H558.504V13.127C559.404 11.927 560.604 10.9936 562.104 10.327C563.604 9.62695 565.27 9.27695 567.104 9.27695ZM611.06 9.67695L593.91 50.477H586.46L592.46 36.677L581.36 9.67695H589.21L596.36 29.027L603.61 9.67695H611.06ZM0.0943359 93.427C0.0943359 90.627 0.644336 88.1436 1.74434 85.977C2.87767 83.8103 4.39434 82.1436 6.29434 80.977C8.22767 79.8103 10.3777 79.227 12.7443 79.227C14.811 79.227 16.611 79.6436 18.1443 80.477C19.711 81.3103 20.961 82.3603 21.8943 83.627V79.677H28.9443V107.377H21.8943V103.327C20.9943 104.627 19.7443 105.71 18.1443 106.577C16.5777 107.41 14.761 107.827 12.6943 107.827C10.361 107.827 8.22767 107.227 6.29434 106.027C4.39434 104.827 2.87767 103.144 1.74434 100.977C0.644336 98.777 0.0943359 96.2603 0.0943359 93.427ZM21.8943 93.527C21.8943 91.827 21.561 90.377 20.8943 89.177C20.2277 87.9436 19.3277 87.0103 18.1943 86.377C17.061 85.7103 15.8443 85.377 14.5443 85.377C13.2443 85.377 12.0443 85.6936 10.9443 86.327C9.84434 86.9603 8.94434 87.8936 8.24434 89.127C7.57767 90.327 7.24434 91.7603 7.24434 93.427C7.24434 95.0936 7.57767 96.5603 8.24434 97.827C8.94434 99.0603 9.84434 100.01 10.9443 100.677C12.0777 101.344 13.2777 101.677 14.5443 101.677C15.8443 101.677 17.061 101.36 18.1943 100.727C19.3277 100.06 20.2277 99.127 20.8943 97.927C21.561 96.6936 21.8943 95.227 21.8943 93.527ZM42.7811 70.377V107.377H35.7811V70.377H42.7811ZM57.8471 85.427V98.827C57.8471 99.7603 58.0637 100.444 58.4971 100.877C58.9637 101.277 59.7304 101.477 60.7971 101.477H64.0471V107.377H59.6471C53.7471 107.377 50.7971 104.51 50.7971 98.777V85.427H47.4971V79.677H50.7971V72.827H57.8471V79.677H64.0471V85.427H57.8471ZM94.8318 92.927C94.8318 93.927 94.7652 94.827 94.6318 95.627H74.3818C74.5485 97.627 75.2485 99.1936 76.4818 100.327C77.7152 101.46 79.2318 102.027 81.0318 102.027C83.6318 102.027 85.4818 100.91 86.5818 98.677H94.1318C93.3318 101.344 91.7985 103.544 89.5318 105.277C87.2652 106.977 84.4818 107.827 81.1818 107.827C78.5152 107.827 76.1152 107.244 73.9818 106.077C71.8818 104.877 70.2318 103.194 69.0318 101.027C67.8652 98.8603 67.2818 96.3603 67.2818 93.527C67.2818 90.6603 67.8652 88.1436 69.0318 85.977C70.1985 83.8103 71.8318 82.1436 73.9318 80.977C76.0318 79.8103 78.4485 79.227 81.1818 79.227C83.8152 79.227 86.1652 79.7936 88.2318 80.927C90.3318 82.0603 91.9485 83.677 93.0818 85.777C94.2485 87.8436 94.8318 90.227 94.8318 92.927ZM87.5818 90.927C87.5485 89.127 86.8985 87.6936 85.6318 86.627C84.3652 85.527 82.8152 84.977 80.9818 84.977C79.2485 84.977 77.7818 85.5103 76.5818 86.577C75.4152 87.6103 74.6985 89.0603 74.4318 90.927H87.5818ZM106.941 83.977C107.841 82.5103 109.008 81.3603 110.441 80.527C111.908 79.6936 113.575 79.277 115.441 79.277V86.627H113.591C111.391 86.627 109.725 87.1436 108.591 88.177C107.491 89.2103 106.941 91.0103 106.941 93.577V107.377H99.9412V79.677H106.941V83.977ZM135.506 79.277C138.806 79.277 141.473 80.327 143.506 82.427C145.539 84.4936 146.556 87.3936 146.556 91.127V107.377H139.556V92.077C139.556 89.877 139.006 88.1936 137.906 87.027C136.806 85.827 135.306 85.227 133.406 85.227C131.473 85.227 129.939 85.827 128.806 87.027C127.706 88.1936 127.156 89.877 127.156 92.077V107.377H120.156V79.677H127.156V83.127C128.089 81.927 129.273 80.9936 130.706 80.327C132.173 79.627 133.773 79.277 135.506 79.277ZM151.413 93.427C151.413 90.627 151.963 88.1436 153.063 85.977C154.196 83.8103 155.713 82.1436 157.613 80.977C159.546 79.8103 161.696 79.227 164.063 79.227C166.129 79.227 167.929 79.6436 169.463 80.477C171.029 81.3103 172.279 82.3603 173.213 83.627V79.677H180.263V107.377H173.213V103.327C172.313 104.627 171.063 105.71 169.463 106.577C167.896 107.41 166.079 107.827 164.013 107.827C161.679 107.827 159.546 107.227 157.613 106.027C155.713 104.827 154.196 103.144 153.063 100.977C151.963 98.777 151.413 96.2603 151.413 93.427ZM173.213 93.527C173.213 91.827 172.879 90.377 172.213 89.177C171.546 87.9436 170.646 87.0103 169.513 86.377C168.379 85.7103 167.163 85.377 165.863 85.377C164.563 85.377 163.363 85.6936 162.263 86.327C161.163 86.9603 160.263 87.8936 159.563 89.127C158.896 90.327 158.563 91.7603 158.563 93.427C158.563 95.0936 158.896 96.5603 159.563 97.827C160.263 99.0603 161.163 100.01 162.263 100.677C163.396 101.344 164.596 101.677 165.863 101.677C167.163 101.677 168.379 101.36 169.513 100.727C170.646 100.06 171.546 99.127 172.213 97.927C172.879 96.6936 173.213 95.227 173.213 93.527ZM195.249 85.427V98.827C195.249 99.7603 195.466 100.444 195.899 100.877C196.366 101.277 197.133 101.477 198.199 101.477H201.449V107.377H197.049C191.149 107.377 188.199 104.51 188.199 98.777V85.427H184.899V79.677H188.199V72.827H195.249V79.677H201.449V85.427H195.249ZM210.034 76.377C208.801 76.377 207.768 75.9936 206.934 75.227C206.134 74.427 205.734 73.4436 205.734 72.277C205.734 71.1103 206.134 70.1436 206.934 69.377C207.768 68.577 208.801 68.177 210.034 68.177C211.268 68.177 212.284 68.577 213.084 69.377C213.918 70.1436 214.334 71.1103 214.334 72.277C214.334 73.4436 213.918 74.427 213.084 75.227C212.284 75.9936 211.268 76.377 210.034 76.377ZM213.484 79.677V107.377H206.484V79.677H213.484ZM231.95 100.927L238.95 79.677H246.4L236.15 107.377H227.65L217.45 79.677H224.95L231.95 100.927ZM276.082 92.927C276.082 93.927 276.015 94.827 275.882 95.627H255.632C255.799 97.627 256.499 99.1936 257.732 100.327C258.965 101.46 260.482 102.027 262.282 102.027C264.882 102.027 266.732 100.91 267.832 98.677H275.382C274.582 101.344 273.049 103.544 270.782 105.277C268.515 106.977 265.732 107.827 262.432 107.827C259.765 107.827 257.365 107.244 255.232 106.077C253.132 104.877 251.482 103.194 250.282 101.027C249.115 98.8603 248.532 96.3603 248.532 93.527C248.532 90.6603 249.115 88.1436 250.282 85.977C251.449 83.8103 253.082 82.1436 255.182 80.977C257.282 79.8103 259.699 79.227 262.432 79.227C265.065 79.227 267.415 79.7936 269.482 80.927C271.582 82.0603 273.199 83.677 274.332 85.777C275.499 87.8436 276.082 90.227 276.082 92.927ZM268.832 90.927C268.799 89.127 268.149 87.6936 266.882 86.627C265.615 85.527 264.065 84.977 262.232 84.977C260.499 84.977 259.032 85.5103 257.832 86.577C256.665 87.6103 255.949 89.0603 255.682 90.927H268.832ZM291.791 107.827C289.525 107.827 287.491 107.427 285.691 106.627C283.891 105.794 282.458 104.677 281.391 103.277C280.358 101.877 279.791 100.327 279.691 98.627H286.741C286.875 99.6936 287.391 100.577 288.291 101.277C289.225 101.977 290.375 102.327 291.741 102.327C293.075 102.327 294.108 102.06 294.841 101.527C295.608 100.994 295.991 100.31 295.991 99.477C295.991 98.577 295.525 97.9103 294.591 97.477C293.691 97.0103 292.241 96.5103 290.241 95.977C288.175 95.477 286.475 94.9603 285.141 94.427C283.841 93.8936 282.708 93.077 281.741 91.977C280.808 90.877 280.341 89.3936 280.341 87.527C280.341 85.9936 280.775 84.5936 281.641 83.327C282.541 82.0603 283.808 81.0603 285.441 80.327C287.108 79.5936 289.058 79.227 291.291 79.227C294.591 79.227 297.225 80.0603 299.191 81.727C301.158 83.3603 302.241 85.577 302.441 88.377H295.741C295.641 87.277 295.175 86.4103 294.341 85.777C293.541 85.1103 292.458 84.777 291.091 84.777C289.825 84.777 288.841 85.0103 288.141 85.477C287.475 85.9436 287.141 86.5936 287.141 87.427C287.141 88.3603 287.608 89.077 288.541 89.577C289.475 90.0436 290.925 90.527 292.891 91.027C294.891 91.527 296.541 92.0436 297.841 92.577C299.141 93.1103 300.258 93.9436 301.191 95.077C302.158 96.177 302.658 97.6436 302.691 99.477C302.691 101.077 302.241 102.51 301.341 103.777C300.475 105.044 299.208 106.044 297.541 106.777C295.908 107.477 293.991 107.827 291.791 107.827ZM328.501 85.427V98.827C328.501 99.7603 328.718 100.444 329.151 100.877C329.618 101.277 330.385 101.477 331.451 101.477H334.701V107.377H330.301C324.401 107.377 321.451 104.51 321.451 98.777V85.427H318.151V79.677H321.451V72.827H328.501V79.677H334.701V85.427H328.501ZM352.036 107.827C349.369 107.827 346.969 107.244 344.836 106.077C342.703 104.877 341.019 103.194 339.786 101.027C338.586 98.8603 337.986 96.3603 337.986 93.527C337.986 90.6936 338.603 88.1936 339.836 86.027C341.103 83.8603 342.819 82.1936 344.986 81.027C347.153 79.827 349.569 79.227 352.236 79.227C354.903 79.227 357.319 79.827 359.486 81.027C361.653 82.1936 363.353 83.8603 364.586 86.027C365.853 88.1936 366.486 90.6936 366.486 93.527C366.486 96.3603 365.836 98.8603 364.536 101.027C363.269 103.194 361.536 104.877 359.336 106.077C357.169 107.244 354.736 107.827 352.036 107.827ZM352.036 101.727C353.303 101.727 354.486 101.427 355.586 100.827C356.719 100.194 357.619 99.2603 358.286 98.027C358.953 96.7936 359.286 95.2936 359.286 93.527C359.286 90.8936 358.586 88.877 357.186 87.477C355.819 86.0436 354.136 85.327 352.136 85.327C350.136 85.327 348.453 86.0436 347.086 87.477C345.753 88.877 345.086 90.8936 345.086 93.527C345.086 96.1603 345.736 98.1936 347.036 99.627C348.369 101.027 350.036 101.727 352.036 101.727ZM396.235 85.427H391.385V107.377H384.285V85.427H381.135V79.677H384.285V78.277C384.285 74.877 385.252 72.377 387.185 70.777C389.118 69.177 392.035 68.427 395.935 68.527V74.427C394.235 74.3936 393.052 74.677 392.385 75.277C391.718 75.877 391.385 76.9603 391.385 78.527V79.677H396.235V85.427ZM398.971 93.427C398.971 90.627 399.521 88.1436 400.621 85.977C401.755 83.8103 403.271 82.1436 405.171 80.977C407.105 79.8103 409.255 79.227 411.621 79.227C413.688 79.227 415.488 79.6436 417.021 80.477C418.588 81.3103 419.838 82.3603 420.771 83.627V79.677H427.821V107.377H420.771V103.327C419.871 104.627 418.621 105.71 417.021 106.577C415.455 107.41 413.638 107.827 411.571 107.827C409.238 107.827 407.105 107.227 405.171 106.027C403.271 104.827 401.755 103.144 400.621 100.977C399.521 98.777 398.971 96.2603 398.971 93.427ZM420.771 93.527C420.771 91.827 420.438 90.377 419.771 89.177C419.105 87.9436 418.205 87.0103 417.071 86.377C415.938 85.7103 414.721 85.377 413.421 85.377C412.121 85.377 410.921 85.6936 409.821 86.327C408.721 86.9603 407.821 87.8936 407.121 89.127C406.455 90.327 406.121 91.7603 406.121 93.427C406.121 95.0936 406.455 96.5603 407.121 97.827C407.821 99.0603 408.721 100.01 409.821 100.677C410.955 101.344 412.155 101.677 413.421 101.677C414.721 101.677 415.938 101.36 417.071 100.727C418.205 100.06 419.105 99.127 419.771 97.927C420.438 96.6936 420.771 95.227 420.771 93.527ZM445.258 107.827C442.991 107.827 440.958 107.427 439.158 106.627C437.358 105.794 435.925 104.677 434.858 103.277C433.825 101.877 433.258 100.327 433.158 98.627H440.208C440.341 99.6936 440.858 100.577 441.758 101.277C442.691 101.977 443.841 102.327 445.208 102.327C446.541 102.327 447.575 102.06 448.308 101.527C449.075 100.994 449.458 100.31 449.458 99.477C449.458 98.577 448.991 97.9103 448.058 97.477C447.158 97.0103 445.708 96.5103 443.708 95.977C441.641 95.477 439.941 94.9603 438.608 94.427C437.308 93.8936 436.175 93.077 435.208 91.977C434.275 90.877 433.808 89.3936 433.808 87.527C433.808 85.9936 434.241 84.5936 435.108 83.327C436.008 82.0603 437.275 81.0603 438.908 80.327C440.575 79.5936 442.525 79.227 444.758 79.227C448.058 79.227 450.691 80.0603 452.658 81.727C454.625 83.3603 455.708 85.577 455.908 88.377H449.208C449.108 87.277 448.641 86.4103 447.808 85.777C447.008 85.1103 445.925 84.777 444.558 84.777C443.291 84.777 442.308 85.0103 441.608 85.477C440.941 85.9436 440.608 86.5936 440.608 87.427C440.608 88.3603 441.075 89.077 442.008 89.577C442.941 90.0436 444.391 90.527 446.358 91.027C448.358 91.527 450.008 92.0436 451.308 92.577C452.608 93.1103 453.725 93.9436 454.658 95.077C455.625 96.177 456.125 97.6436 456.158 99.477C456.158 101.077 455.708 102.51 454.808 103.777C453.941 105.044 452.675 106.044 451.008 106.777C449.375 107.477 447.458 107.827 445.258 107.827ZM470.054 85.427V98.827C470.054 99.7603 470.271 100.444 470.704 100.877C471.171 101.277 471.937 101.477 473.004 101.477H476.254V107.377H471.854C465.954 107.377 463.004 104.51 463.004 98.777V85.427H459.704V79.677H463.004V72.827H470.054V79.677H476.254V85.427H470.054ZM505.903 85.427H501.053V107.377H493.953V85.427H490.803V79.677H493.953V78.277C493.953 74.877 494.92 72.377 496.853 70.777C498.786 69.177 501.703 68.427 505.603 68.527V74.427C503.903 74.3936 502.72 74.677 502.053 75.277C501.386 75.877 501.053 76.9603 501.053 78.527V79.677H505.903V85.427ZM522.739 107.827C520.073 107.827 517.673 107.244 515.539 106.077C513.406 104.877 511.723 103.194 510.489 101.027C509.289 98.8603 508.689 96.3603 508.689 93.527C508.689 90.6936 509.306 88.1936 510.539 86.027C511.806 83.8603 513.523 82.1936 515.689 81.027C517.856 79.827 520.273 79.227 522.939 79.227C525.606 79.227 528.023 79.827 530.189 81.027C532.356 82.1936 534.056 83.8603 535.289 86.027C536.556 88.1936 537.189 90.6936 537.189 93.527C537.189 96.3603 536.539 98.8603 535.239 101.027C533.973 103.194 532.239 104.877 530.039 106.077C527.873 107.244 525.439 107.827 522.739 107.827ZM522.739 101.727C524.006 101.727 525.189 101.427 526.289 100.827C527.423 100.194 528.323 99.2603 528.989 98.027C529.656 96.7936 529.989 95.2936 529.989 93.527C529.989 90.8936 529.289 88.877 527.889 87.477C526.523 86.0436 524.839 85.327 522.839 85.327C520.839 85.327 519.156 86.0436 517.789 87.477C516.456 88.877 515.789 90.8936 515.789 93.527C515.789 96.1603 516.439 98.1936 517.739 99.627C519.073 101.027 520.739 101.727 522.739 101.727ZM554.624 107.827C551.957 107.827 549.557 107.244 547.424 106.077C545.291 104.877 543.607 103.194 542.374 101.027C541.174 98.8603 540.574 96.3603 540.574 93.527C540.574 90.6936 541.191 88.1936 542.424 86.027C543.691 83.8603 545.407 82.1936 547.574 81.027C549.741 79.827 552.157 79.227 554.824 79.227C557.491 79.227 559.907 79.827 562.074 81.027C564.241 82.1936 565.941 83.8603 567.174 86.027C568.441 88.1936 569.074 90.6936 569.074 93.527C569.074 96.3603 568.424 98.8603 567.124 101.027C565.857 103.194 564.124 104.877 561.924 106.077C559.757 107.244 557.324 107.827 554.624 107.827ZM554.624 101.727C555.891 101.727 557.074 101.427 558.174 100.827C559.307 100.194 560.207 99.2603 560.874 98.027C561.541 96.7936 561.874 95.2936 561.874 93.527C561.874 90.8936 561.174 88.877 559.774 87.477C558.407 86.0436 556.724 85.327 554.724 85.327C552.724 85.327 551.041 86.0436 549.674 87.477C548.341 88.877 547.674 90.8936 547.674 93.527C547.674 96.1603 548.324 98.1936 549.624 99.627C550.957 101.027 552.624 101.727 554.624 101.727ZM572.409 93.427C572.409 90.627 572.959 88.1436 574.059 85.977C575.192 83.8103 576.725 82.1436 578.659 80.977C580.592 79.8103 582.742 79.227 585.109 79.227C586.909 79.227 588.625 79.627 590.259 80.427C591.892 81.1936 593.192 82.227 594.159 83.527V70.377H601.259V107.377H594.159V103.277C593.292 104.644 592.075 105.744 590.509 106.577C588.942 107.41 587.125 107.827 585.059 107.827C582.725 107.827 580.592 107.227 578.659 106.027C576.725 104.827 575.192 103.144 574.059 100.977C572.959 98.777 572.409 96.2603 572.409 93.427ZM594.209 93.527C594.209 91.827 593.875 90.377 593.209 89.177C592.542 87.9436 591.642 87.0103 590.509 86.377C589.375 85.7103 588.159 85.377 586.859 85.377C585.559 85.377 584.359 85.6936 583.259 86.327C582.159 86.9603 581.259 87.8936 580.559 89.127C579.892 90.327 579.559 91.7603 579.559 93.427C579.559 95.0936 579.892 96.5603 580.559 97.827C581.259 99.0603 582.159 100.01 583.259 100.677C584.392 101.344 585.592 101.677 586.859 101.677C588.159 101.677 589.375 101.36 590.509 100.727C591.642 100.06 592.542 99.127 593.209 97.927C593.875 96.6936 594.209 95.227 594.209 93.527ZM617.146 71.877L616.346 96.027H610.446L609.596 71.877H617.146ZM613.546 107.727C612.279 107.727 611.229 107.344 610.396 106.577C609.596 105.777 609.196 104.794 609.196 103.627C609.196 102.46 609.596 101.494 610.396 100.727C611.229 99.927 612.279 99.527 613.546 99.527C614.779 99.527 615.796 99.927 616.596 100.727C617.396 101.494 617.796 102.46 617.796 103.627C617.796 104.794 617.396 105.777 616.596 106.577C615.796 107.344 614.779 107.727 613.546 107.727Z" fill="white"/>
</svg>
